<svg xmlns="http://www.w3.org/2000/svg" version="1.1" xmlns:xlink="http://www.w3.org/1999/xlink" xmlns:svgjs="http://svgjs.com/svgjs" width="1440" height="800" preserveAspectRatio="none" viewBox="0 0 1440 800"><g mask="url(&quot;#SvgjsMask1007&quot;)" fill="none"><rect width="1440" height="800" x="0" y="0" fill="#0e2a47"></rect><path d="M5.18 -2.06L70.13 35.44L70.13 110.44L5.18 147.94L-59.77 110.44L-59.77 35.44zM70.13 785.44L135.09 822.94L135.09 897.94L70.13 935.44L5.18 897.94L5.18 822.94zM135.09 -2.06L200.04 35.44L200.04 110.44L135.09 147.94L70.13 110.44L70.13 35.44zM200.04 110.44L265 147.94L265 222.94L200.04 260.44L135.09 222.94L135.09 147.94zM135.09 222.94L200.04 260.44L200.04 335.44L135.09 372.94L70.13 335.44L70.13 260.44zM135.09 447.94L200.04 485.44L200.04 560.44L135.09 597.94L70.13 560.44L70.13 485.44zM200.04 560.44L265 597.94L265 672.94L200.04 710.44L135.09 672.94L135.09 597.94zM135.09 672.94L200.04 710.44L200.04 785.44L135.09 822.94L70.13 785.44L70.13 710.44zM200.04 785.44L265 822.94L265 897.94L200.04 935.44L135.09 897.94L135.09 822.94zM329.95 335.44L394.9 372.94L394.9 447.94L329.95 485.44L265 447.94L265 372.94zM265 447.94L329.95 485.44L329.95 560.44L265 597.94L200.04 560.44L200.04 485.44zM329.95 560.44L394.9 597.94L394.9 672.94L329.95 710.44L265 672.94L265 597.94zM394.9 -2.06L459.86 35.44L459.86 110.44L394.9 147.94L329.95 110.44L329.95 35.44zM394.9 447.94L459.86 485.44L459.86 560.44L394.9 597.94L329.95 560.44L329.95 485.44zM459.86 785.44L524.81 822.94L524.81 897.94L459.86 935.44L394.9 897.94L394.9 822.94zM589.76 110.44L654.72 147.94L654.72 222.94L589.76 260.44L524.81 222.94L524.81 147.94zM524.81 222.94L589.76 260.44L589.76 335.44L524.81 372.94L459.86 335.44L459.86 260.44zM589.76 335.44L654.72 372.94L654.72 447.94L589.76 485.44L524.81 447.94L524.81 372.94zM719.67 335.44L784.63 372.94L784.63 447.94L719.67 485.44L654.72 447.94L654.72 372.94zM654.72 447.94L719.67 485.44L719.67 560.44L654.72 597.94L589.76 560.44L589.76 485.44zM654.72 672.94L719.67 710.44L719.67 785.44L654.72 822.94L589.76 785.44L589.76 710.44zM784.62 -2.06L849.58 35.44L849.58 110.44L784.62 147.94L719.67 110.44L719.67 35.44zM784.62 447.94L849.58 485.44L849.58 560.44L784.62 597.94L719.67 560.44L719.67 485.44zM849.58 560.44L914.53 597.94L914.53 672.94L849.58 710.44L784.62 672.94L784.62 597.94zM979.49 110.44L1044.44 147.94L1044.44 222.94L979.49 260.44L914.53 222.94L914.53 147.94zM979.49 335.44L1044.44 372.94L1044.44 447.94L979.49 485.44L914.53 447.94L914.53 372.94zM979.49 560.44L1044.44 597.94L1044.44 672.94L979.49 710.44L914.53 672.94L914.53 597.94zM1109.39 110.44L1174.35 147.94L1174.35 222.94L1109.39 260.44L1044.44 222.94L1044.44 147.94zM1044.44 222.94L1109.39 260.44L1109.39 335.44L1044.44 372.94L979.49 335.44L979.49 260.44zM1044.44 447.94L1109.39 485.44L1109.39 560.44L1044.44 597.94L979.49 560.44L979.49 485.44zM1109.39 560.44L1174.35 597.94L1174.35 672.94L1109.39 710.44L1044.44 672.94L1044.44 597.94zM1044.44 672.94L1109.39 710.44L1109.39 785.44L1044.44 822.94L979.49 785.44L979.49 710.44zM1239.3 110.44L1304.25 147.94L1304.25 222.94L1239.3 260.44L1174.35 222.94L1174.35 147.94zM1239.3 335.44L1304.25 372.94L1304.25 447.94L1239.3 485.44L1174.35 447.94L1174.35 372.94zM1239.3 560.44L1304.25 597.94L1304.25 672.94L1239.3 710.44L1174.35 672.94L1174.35 597.94zM1369.21 110.44L1434.16 147.94L1434.16 222.94L1369.21 260.44L1304.26 222.94L1304.26 147.94zM1304.26 222.94L1369.21 260.44L1369.21 335.44L1304.26 372.94L1239.3 335.44L1239.3 260.44zM1369.21 335.44L1434.16 372.94L1434.16 447.94L1369.21 485.44L1304.26 447.94L1304.26 372.94zM1304.26 447.94L1369.21 485.44L1369.21 560.44L1304.26 597.94L1239.3 560.44L1239.3 485.44zM1304.26 672.94L1369.21 710.44L1369.21 785.44L1304.26 822.94L1239.3 785.44L1239.3 710.44zM1369.21 785.44L1434.16 822.94L1434.16 897.94L1369.21 935.44L1304.26 897.94L1304.26 822.94z" stroke="#03305d" stroke-width="2"></path><path d="M-2.32 -2.06 a7.5 7.5 0 1 0 15 0 a7.5 7.5 0 1 0 -15 0zM62.63 35.44 a7.5 7.5 0 1 0 15 0 a7.5 7.5 0 1 0 -15 0zM62.63 110.44 a7.5 7.5 0 1 0 15 0 a7.5 7.5 0 1 0 -15 0zM-2.32 147.94 a7.5 7.5 0 1 0 15 0 a7.5 7.5 0 1 0 -15 0zM-67.27 110.44 a7.5 7.5 0 1 0 15 0 a7.5 7.5 0 1 0 -15 0zM-67.27 35.44 a7.5 7.5 0 1 0 15 0 a7.5 7.5 0 1 0 -15 0zM62.63 785.44 a7.5 7.5 0 1 0 15 0 a7.5 7.5 0 1 0 -15 0zM127.59 822.94 a7.5 7.5 0 1 0 15 0 a7.5 7.5 0 1 0 -15 0zM127.59 897.94 a7.5 7.5 0 1 0 15 0 a7.5 7.5 0 1 0 -15 0zM62.63 935.44 a7.5 7.5 0 1 0 15 0 a7.5 7.5 0 1 0 -15 0zM-2.32 897.94 a7.5 7.5 0 1 0 15 0 a7.5 7.5 0 1 0 -15 0zM-2.32 822.94 a7.5 7.5 0 1 0 15 0 a7.5 7.5 0 1 0 -15 0zM127.59 -2.06 a7.5 7.5 0 1 0 15 0 a7.5 7.5 0 1 0 -15 0zM192.54 35.44 a7.5 7.5 0 1 0 15 0 a7.5 7.5 0 1 0 -15 0zM192.54 110.44 a7.5 7.5 0 1 0 15 0 a7.5 7.5 0 1 0 -15 0zM127.59 147.94 a7.5 7.5 0 1 0 15 0 a7.5 7.5 0 1 0 -15 0zM257.5 147.94 a7.5 7.5 0 1 0 15 0 a7.5 7.5 0 1 0 -15 0zM257.5 222.94 a7.5 7.5 0 1 0 15 0 a7.5 7.5 0 1 0 -15 0zM192.54 260.44 a7.5 7.5 0 1 0 15 0 a7.5 7.5 0 1 0 -15 0zM127.59 222.94 a7.5 7.5 0 1 0 15 0 a7.5 7.5 0 1 0 -15 0zM192.54 335.44 a7.5 7.5 0 1 0 15 0 a7.5 7.5 0 1 0 -15 0zM127.59 372.94 a7.5 7.5 0 1 0 15 0 a7.5 7.5 0 1 0 -15 0zM62.63 335.44 a7.5 7.5 0 1 0 15 0 a7.5 7.5 0 1 0 -15 0zM62.63 260.44 a7.5 7.5 0 1 0 15 0 a7.5 7.5 0 1 0 -15 0zM127.59 447.94 a7.5 7.5 0 1 0 15 0 a7.5 7.5 0 1 0 -15 0zM192.54 485.44 a7.5 7.5 0 1 0 15 0 a7.5 7.5 0 1 0 -15 0zM192.54 560.44 a7.5 7.5 0 1 0 15 0 a7.5 7.5 0 1 0 -15 0zM127.59 597.94 a7.5 7.5 0 1 0 15 0 a7.5 7.5 0 1 0 -15 0zM62.63 560.44 a7.5 7.5 0 1 0 15 0 a7.5 7.5 0 1 0 -15 0zM62.63 485.44 a7.5 7.5 0 1 0 15 0 a7.5 7.5 0 1 0 -15 0zM257.5 597.94 a7.5 7.5 0 1 0 15 0 a7.5 7.5 0 1 0 -15 0zM257.5 672.94 a7.5 7.5 0 1 0 15 0 a7.5 7.5 0 1 0 -15 0zM192.54 710.44 a7.5 7.5 0 1 0 15 0 a7.5 7.5 0 1 0 -15 0zM127.59 672.94 a7.5 7.5 0 1 0 15 0 a7.5 7.5 0 1 0 -15 0zM192.54 785.44 a7.5 7.5 0 1 0 15 0 a7.5 7.5 0 1 0 -15 0zM62.63 710.44 a7.5 7.5 0 1 0 15 0 a7.5 7.5 0 1 0 -15 0zM257.5 822.94 a7.5 7.5 0 1 0 15 0 a7.5 7.5 0 1 0 -15 0zM257.5 897.94 a7.5 7.5 0 1 0 15 0 a7.5 7.5 0 1 0 -15 0zM192.54 935.44 a7.5 7.5 0 1 0 15 0 a7.5 7.5 0 1 0 -15 0zM322.45 335.44 a7.5 7.5 0 1 0 15 0 a7.5 7.5 0 1 0 -15 0zM387.4 372.94 a7.5 7.5 0 1 0 15 0 a7.5 7.5 0 1 0 -15 0zM387.4 447.94 a7.5 7.5 0 1 0 15 0 a7.5 7.5 0 1 0 -15 0zM322.45 485.44 a7.5 7.5 0 1 0 15 0 a7.5 7.5 0 1 0 -15 0zM257.5 447.94 a7.5 7.5 0 1 0 15 0 a7.5 7.5 0 1 0 -15 0zM257.5 372.94 a7.5 7.5 0 1 0 15 0 a7.5 7.5 0 1 0 -15 0zM322.45 560.44 a7.5 7.5 0 1 0 15 0 a7.5 7.5 0 1 0 -15 0zM387.4 597.94 a7.5 7.5 0 1 0 15 0 a7.5 7.5 0 1 0 -15 0zM387.4 672.94 a7.5 7.5 0 1 0 15 0 a7.5 7.5 0 1 0 -15 0zM322.45 710.44 a7.5 7.5 0 1 0 15 0 a7.5 7.5 0 1 0 -15 0zM387.4 -2.06 a7.5 7.5 0 1 0 15 0 a7.5 7.5 0 1 0 -15 0zM452.36 35.44 a7.5 7.5 0 1 0 15 0 a7.5 7.5 0 1 0 -15 0zM452.36 110.44 a7.5 7.5 0 1 0 15 0 a7.5 7.5 0 1 0 -15 0zM387.4 147.94 a7.5 7.5 0 1 0 15 0 a7.5 7.5 0 1 0 -15 0zM322.45 110.44 a7.5 7.5 0 1 0 15 0 a7.5 7.5 0 1 0 -15 0zM322.45 35.44 a7.5 7.5 0 1 0 15 0 a7.5 7.5 0 1 0 -15 0zM452.36 485.44 a7.5 7.5 0 1 0 15 0 a7.5 7.5 0 1 0 -15 0zM452.36 560.44 a7.5 7.5 0 1 0 15 0 a7.5 7.5 0 1 0 -15 0zM452.36 785.44 a7.5 7.5 0 1 0 15 0 a7.5 7.5 0 1 0 -15 0zM517.31 822.94 a7.5 7.5 0 1 0 15 0 a7.5 7.5 0 1 0 -15 0zM517.31 897.94 a7.5 7.5 0 1 0 15 0 a7.5 7.5 0 1 0 -15 0zM452.36 935.44 a7.5 7.5 0 1 0 15 0 a7.5 7.5 0 1 0 -15 0zM387.4 897.94 a7.5 7.5 0 1 0 15 0 a7.5 7.5 0 1 0 -15 0zM387.4 822.94 a7.5 7.5 0 1 0 15 0 a7.5 7.5 0 1 0 -15 0zM582.26 110.44 a7.5 7.5 0 1 0 15 0 a7.5 7.5 0 1 0 -15 0zM647.22 147.94 a7.5 7.5 0 1 0 15 0 a7.5 7.5 0 1 0 -15 0zM647.22 222.94 a7.5 7.5 0 1 0 15 0 a7.5 7.5 0 1 0 -15 0zM582.26 260.44 a7.5 7.5 0 1 0 15 0 a7.5 7.5 0 1 0 -15 0zM517.31 222.94 a7.5 7.5 0 1 0 15 0 a7.5 7.5 0 1 0 -15 0zM517.31 147.94 a7.5 7.5 0 1 0 15 0 a7.5 7.5 0 1 0 -15 0zM582.26 335.44 a7.5 7.5 0 1 0 15 0 a7.5 7.5 0 1 0 -15 0zM517.31 372.94 a7.5 7.5 0 1 0 15 0 a7.5 7.5 0 1 0 -15 0zM452.36 335.44 a7.5 7.5 0 1 0 15 0 a7.5 7.5 0 1 0 -15 0zM452.36 260.44 a7.5 7.5 0 1 0 15 0 a7.5 7.5 0 1 0 -15 0zM647.22 372.94 a7.5 7.5 0 1 0 15 0 a7.5 7.5 0 1 0 -15 0zM647.22 447.94 a7.5 7.5 0 1 0 15 0 a7.5 7.5 0 1 0 -15 0zM582.26 485.44 a7.5 7.5 0 1 0 15 0 a7.5 7.5 0 1 0 -15 0zM517.31 447.94 a7.5 7.5 0 1 0 15 0 a7.5 7.5 0 1 0 -15 0zM712.17 335.44 a7.5 7.5 0 1 0 15 0 a7.5 7.5 0 1 0 -15 0zM777.13 372.94 a7.5 7.5 0 1 0 15 0 a7.5 7.5 0 1 0 -15 0zM777.13 447.94 a7.5 7.5 0 1 0 15 0 a7.5 7.5 0 1 0 -15 0zM712.17 485.44 a7.5 7.5 0 1 0 15 0 a7.5 7.5 0 1 0 -15 0zM712.17 560.44 a7.5 7.5 0 1 0 15 0 a7.5 7.5 0 1 0 -15 0zM647.22 597.94 a7.5 7.5 0 1 0 15 0 a7.5 7.5 0 1 0 -15 0zM582.26 560.44 a7.5 7.5 0 1 0 15 0 a7.5 7.5 0 1 0 -15 0zM647.22 672.94 a7.5 7.5 0 1 0 15 0 a7.5 7.5 0 1 0 -15 0zM712.17 710.44 a7.5 7.5 0 1 0 15 0 a7.5 7.5 0 1 0 -15 0zM712.17 785.44 a7.5 7.5 0 1 0 15 0 a7.5 7.5 0 1 0 -15 0zM647.22 822.94 a7.5 7.5 0 1 0 15 0 a7.5 7.5 0 1 0 -15 0zM582.26 785.44 a7.5 7.5 0 1 0 15 0 a7.5 7.5 0 1 0 -15 0zM582.26 710.44 a7.5 7.5 0 1 0 15 0 a7.5 7.5 0 1 0 -15 0zM777.12 -2.06 a7.5 7.5 0 1 0 15 0 a7.5 7.5 0 1 0 -15 0zM842.08 35.44 a7.5 7.5 0 1 0 15 0 a7.5 7.5 0 1 0 -15 0zM842.08 110.44 a7.5 7.5 0 1 0 15 0 a7.5 7.5 0 1 0 -15 0zM777.12 147.94 a7.5 7.5 0 1 0 15 0 a7.5 7.5 0 1 0 -15 0zM712.17 110.44 a7.5 7.5 0 1 0 15 0 a7.5 7.5 0 1 0 -15 0zM712.17 35.44 a7.5 7.5 0 1 0 15 0 a7.5 7.5 0 1 0 -15 0zM777.12 447.94 a7.5 7.5 0 1 0 15 0 a7.5 7.5 0 1 0 -15 0zM842.08 485.44 a7.5 7.5 0 1 0 15 0 a7.5 7.5 0 1 0 -15 0zM842.08 560.44 a7.5 7.5 0 1 0 15 0 a7.5 7.5 0 1 0 -15 0zM777.12 597.94 a7.5 7.5 0 1 0 15 0 a7.5 7.5 0 1 0 -15 0zM907.03 597.94 a7.5 7.5 0 1 0 15 0 a7.5 7.5 0 1 0 -15 0zM907.03 672.94 a7.5 7.5 0 1 0 15 0 a7.5 7.5 0 1 0 -15 0zM842.08 710.44 a7.5 7.5 0 1 0 15 0 a7.5 7.5 0 1 0 -15 0zM777.12 672.94 a7.5 7.5 0 1 0 15 0 a7.5 7.5 0 1 0 -15 0zM971.99 110.44 a7.5 7.5 0 1 0 15 0 a7.5 7.5 0 1 0 -15 0zM1036.94 147.94 a7.5 7.5 0 1 0 15 0 a7.5 7.5 0 1 0 -15 0zM1036.94 222.94 a7.5 7.5 0 1 0 15 0 a7.5 7.5 0 1 0 -15 0zM971.99 260.44 a7.5 7.5 0 1 0 15 0 a7.5 7.5 0 1 0 -15 0zM907.03 222.94 a7.5 7.5 0 1 0 15 0 a7.5 7.5 0 1 0 -15 0zM907.03 147.94 a7.5 7.5 0 1 0 15 0 a7.5 7.5 0 1 0 -15 0zM971.99 335.44 a7.5 7.5 0 1 0 15 0 a7.5 7.5 0 1 0 -15 0zM1036.94 372.94 a7.5 7.5 0 1 0 15 0 a7.5 7.5 0 1 0 -15 0zM1036.94 447.94 a7.5 7.5 0 1 0 15 0 a7.5 7.5 0 1 0 -15 0zM971.99 485.44 a7.5 7.5 0 1 0 15 0 a7.5 7.5 0 1 0 -15 0zM907.03 447.94 a7.5 7.5 0 1 0 15 0 a7.5 7.5 0 1 0 -15 0zM907.03 372.94 a7.5 7.5 0 1 0 15 0 a7.5 7.5 0 1 0 -15 0zM971.99 560.44 a7.5 7.5 0 1 0 15 0 a7.5 7.5 0 1 0 -15 0zM1036.94 597.94 a7.5 7.5 0 1 0 15 0 a7.5 7.5 0 1 0 -15 0zM1036.94 672.94 a7.5 7.5 0 1 0 15 0 a7.5 7.5 0 1 0 -15 0zM971.99 710.44 a7.5 7.5 0 1 0 15 0 a7.5 7.5 0 1 0 -15 0zM1101.89 110.44 a7.5 7.5 0 1 0 15 0 a7.5 7.5 0 1 0 -15 0zM1166.85 147.94 a7.5 7.5 0 1 0 15 0 a7.5 7.5 0 1 0 -15 0zM1166.85 222.94 a7.5 7.5 0 1 0 15 0 a7.5 7.5 0 1 0 -15 0zM1101.89 260.44 a7.5 7.5 0 1 0 15 0 a7.5 7.5 0 1 0 -15 0zM1101.89 335.44 a7.5 7.5 0 1 0 15 0 a7.5 7.5 0 1 0 -15 0zM1101.89 485.44 a7.5 7.5 0 1 0 15 0 a7.5 7.5 0 1 0 -15 0zM1101.89 560.44 a7.5 7.5 0 1 0 15 0 a7.5 7.5 0 1 0 -15 0zM1166.85 597.94 a7.5 7.5 0 1 0 15 0 a7.5 7.5 0 1 0 -15 0zM1166.85 672.94 a7.5 7.5 0 1 0 15 0 a7.5 7.5 0 1 0 -15 0zM1101.89 710.44 a7.5 7.5 0 1 0 15 0 a7.5 7.5 0 1 0 -15 0zM1101.89 785.44 a7.5 7.5 0 1 0 15 0 a7.5 7.5 0 1 0 -15 0zM1036.94 822.94 a7.5 7.5 0 1 0 15 0 a7.5 7.5 0 1 0 -15 0zM971.99 785.44 a7.5 7.5 0 1 0 15 0 a7.5 7.5 0 1 0 -15 0zM1231.8 110.44 a7.5 7.5 0 1 0 15 0 a7.5 7.5 0 1 0 -15 0zM1296.75 147.94 a7.5 7.5 0 1 0 15 0 a7.5 7.5 0 1 0 -15 0zM1296.75 222.94 a7.5 7.5 0 1 0 15 0 a7.5 7.5 0 1 0 -15 0zM1231.8 260.44 a7.5 7.5 0 1 0 15 0 a7.5 7.5 0 1 0 -15 0zM1231.8 335.44 a7.5 7.5 0 1 0 15 0 a7.5 7.5 0 1 0 -15 0zM1296.75 372.94 a7.5 7.5 0 1 0 15 0 a7.5 7.5 0 1 0 -15 0zM1296.75 447.94 a7.5 7.5 0 1 0 15 0 a7.5 7.5 0 1 0 -15 0zM1231.8 485.44 a7.5 7.5 0 1 0 15 0 a7.5 7.5 0 1 0 -15 0zM1166.85 447.94 a7.5 7.5 0 1 0 15 0 a7.5 7.5 0 1 0 -15 0zM1166.85 372.94 a7.5 7.5 0 1 0 15 0 a7.5 7.5 0 1 0 -15 0zM1231.8 560.44 a7.5 7.5 0 1 0 15 0 a7.5 7.5 0 1 0 -15 0zM1296.75 597.94 a7.5 7.5 0 1 0 15 0 a7.5 7.5 0 1 0 -15 0zM1296.75 672.94 a7.5 7.5 0 1 0 15 0 a7.5 7.5 0 1 0 -15 0zM1231.8 710.44 a7.5 7.5 0 1 0 15 0 a7.5 7.5 0 1 0 -15 0zM1361.71 110.44 a7.5 7.5 0 1 0 15 0 a7.5 7.5 0 1 0 -15 0zM1426.66 147.94 a7.5 7.5 0 1 0 15 0 a7.5 7.5 0 1 0 -15 0zM1426.66 222.94 a7.5 7.5 0 1 0 15 0 a7.5 7.5 0 1 0 -15 0zM1361.71 260.44 a7.5 7.5 0 1 0 15 0 a7.5 7.5 0 1 0 -15 0zM1296.76 222.94 a7.5 7.5 0 1 0 15 0 a7.5 7.5 0 1 0 -15 0zM1296.76 147.94 a7.5 7.5 0 1 0 15 0 a7.5 7.5 0 1 0 -15 0zM1361.71 335.44 a7.5 7.5 0 1 0 15 0 a7.5 7.5 0 1 0 -15 0zM1296.76 372.94 a7.5 7.5 0 1 0 15 0 a7.5 7.5 0 1 0 -15 0zM1426.66 372.94 a7.5 7.5 0 1 0 15 0 a7.5 7.5 0 1 0 -15 0zM1426.66 447.94 a7.5 7.5 0 1 0 15 0 a7.5 7.5 0 1 0 -15 0zM1361.71 485.44 a7.5 7.5 0 1 0 15 0 a7.5 7.5 0 1 0 -15 0zM1296.76 447.94 a7.5 7.5 0 1 0 15 0 a7.5 7.5 0 1 0 -15 0zM1361.71 560.44 a7.5 7.5 0 1 0 15 0 a7.5 7.5 0 1 0 -15 0zM1296.76 597.94 a7.5 7.5 0 1 0 15 0 a7.5 7.5 0 1 0 -15 0zM1296.76 672.94 a7.5 7.5 0 1 0 15 0 a7.5 7.5 0 1 0 -15 0zM1361.71 710.44 a7.5 7.5 0 1 0 15 0 a7.5 7.5 0 1 0 -15 0zM1361.71 785.44 a7.5 7.5 0 1 0 15 0 a7.5 7.5 0 1 0 -15 0zM1296.76 822.94 a7.5 7.5 0 1 0 15 0 a7.5 7.5 0 1 0 -15 0zM1231.8 785.44 a7.5 7.5 0 1 0 15 0 a7.5 7.5 0 1 0 -15 0zM1426.66 822.94 a7.5 7.5 0 1 0 15 0 a7.5 7.5 0 1 0 -15 0zM1426.66 897.94 a7.5 7.5 0 1 0 15 0 a7.5 7.5 0 1 0 -15 0zM1361.71 935.44 a7.5 7.5 0 1 0 15 0 a7.5 7.5 0 1 0 -15 0zM1296.76 897.94 a7.5 7.5 0 1 0 15 0 a7.5 7.5 0 1 0 -15 0z" fill="#03305d"></path><path d="M30.12 186.32L62.16 204.82L62.16 241.82L30.12 260.32L-1.92 241.82L-1.92 204.82zM30.12 297.32L62.16 315.82L62.16 352.82L30.12 371.32L-1.92 352.82L-1.92 315.82zM62.16 463.82L94.21 482.32L94.21 519.32L62.16 537.82L30.12 519.32L30.12 482.32zM30.12 519.32L62.16 537.82L62.16 574.82L30.12 593.32L-1.92 574.82L-1.92 537.82zM62.16 685.82L94.21 704.32L94.21 741.32L62.16 759.82L30.12 741.32L30.12 704.32zM94.21 -35.68L126.25 -17.18L126.25 19.82L94.21 38.32L62.16 19.82L62.16 -17.18zM126.25 130.82L158.3 149.32L158.3 186.32L126.25 204.82L94.21 186.32L94.21 149.32zM94.21 408.32L126.25 426.82L126.25 463.82L94.21 482.32L62.16 463.82L62.16 426.82zM94.21 519.32L126.25 537.82L126.25 574.82L94.21 593.32L62.16 574.82L62.16 537.82zM94.21 630.32L126.25 648.82L126.25 685.82L94.21 704.32L62.16 685.82L62.16 648.82zM94.21 741.32L126.25 759.82L126.25 796.82L94.21 815.32L62.16 796.82L62.16 759.82zM158.3 297.32L190.34 315.82L190.34 352.82L158.3 371.32L126.25 352.82L126.25 315.82zM190.34 352.82L222.38 371.32L222.38 408.32L190.34 426.82L158.3 408.32L158.3 371.32zM190.34 685.82L222.38 704.32L222.38 741.32L190.34 759.82L158.3 741.32L158.3 704.32zM254.43 19.82L286.47 38.32L286.47 75.32L254.43 93.82L222.38 75.32L222.38 38.32zM222.38 75.32L254.43 93.82L254.43 130.82L222.38 149.32L190.34 130.82L190.34 93.82zM254.43 130.82L286.47 149.32L286.47 186.32L254.43 204.82L222.38 186.32L222.38 149.32zM222.38 186.32L254.43 204.82L254.43 241.82L222.38 260.32L190.34 241.82L190.34 204.82zM254.43 463.82L286.47 482.32L286.47 519.32L254.43 537.82L222.38 519.32L222.38 482.32zM222.38 519.32L254.43 537.82L254.43 574.82L222.38 593.32L190.34 574.82L190.34 537.82zM222.38 741.32L254.43 759.82L254.43 796.82L222.38 815.32L190.34 796.82L190.34 759.82zM318.51 130.82L350.56 149.32L350.56 186.32L318.51 204.82L286.47 186.32L286.47 149.32zM286.47 186.32L318.51 204.82L318.51 241.82L286.47 260.32L254.43 241.82L254.43 204.82zM318.51 241.82L350.56 260.32L350.56 297.32L318.51 315.82L286.47 297.32L286.47 260.32zM286.47 741.32L318.51 759.82L318.51 796.82L286.47 815.32L254.43 796.82L254.43 759.82zM382.6 19.82L414.65 38.32L414.65 75.32L382.6 93.82L350.56 75.32L350.56 38.32zM382.6 130.82L414.65 149.32L414.65 186.32L382.6 204.82L350.56 186.32L350.56 149.32zM350.56 297.32L382.6 315.82L382.6 352.82L350.56 371.32L318.51 352.82L318.51 315.82zM350.56 519.32L382.6 537.82L382.6 574.82L350.56 593.32L318.51 574.82L318.51 537.82zM414.65 75.32L446.69 93.82L446.69 130.82L414.65 149.32L382.6 130.82L382.6 93.82zM446.69 352.82L478.73 371.32L478.73 408.32L446.69 426.82L414.65 408.32L414.65 371.32zM414.65 519.32L446.69 537.82L446.69 574.82L414.65 593.32L382.6 574.82L382.6 537.82zM446.69 574.82L478.73 593.32L478.73 630.32L446.69 648.82L414.65 630.32L414.65 593.32zM414.65 630.32L446.69 648.82L446.69 685.82L414.65 704.32L382.6 685.82L382.6 648.82zM446.69 685.82L478.73 704.32L478.73 741.32L446.69 759.82L414.65 741.32L414.65 704.32zM510.78 19.82L542.82 38.32L542.82 75.32L510.78 93.82L478.73 75.32L478.73 38.32zM478.73 408.32L510.78 426.82L510.78 463.82L478.73 482.32L446.69 463.82L446.69 426.82zM478.73 741.32L510.78 759.82L510.78 796.82L478.73 815.32L446.69 796.82L446.69 759.82zM542.82 -35.68L574.87 -17.18L574.87 19.82L542.82 38.32L510.78 19.82L510.78 -17.18zM574.87 19.82L606.91 38.32L606.91 75.32L574.87 93.82L542.82 75.32L542.82 38.32zM542.82 297.32L574.87 315.82L574.87 352.82L542.82 371.32L510.78 352.82L510.78 315.82zM574.87 352.82L606.91 371.32L606.91 408.32L574.87 426.82L542.82 408.32L542.82 371.32zM574.87 574.82L606.91 593.32L606.91 630.32L574.87 648.82L542.82 630.32L542.82 593.32zM606.91 -35.68L638.95 -17.18L638.95 19.82L606.91 38.32L574.87 19.82L574.87 -17.18zM638.95 19.82L671 38.32L671 75.32L638.95 93.82L606.91 75.32L606.91 38.32zM606.91 75.32L638.95 93.82L638.95 130.82L606.91 149.32L574.87 130.82L574.87 93.82zM606.91 297.32L638.95 315.82L638.95 352.82L606.91 371.32L574.87 352.82L574.87 315.82zM638.95 352.82L671 371.32L671 408.32L638.95 426.82L606.91 408.32L606.91 371.32zM606.91 630.32L638.95 648.82L638.95 685.82L606.91 704.32L574.87 685.82L574.87 648.82zM606.91 741.32L638.95 759.82L638.95 796.82L606.91 815.32L574.87 796.82L574.87 759.82zM671 -35.68L703.04 -17.18L703.04 19.82L671 38.32L638.95 19.82L638.95 -17.18zM671 75.32L703.04 93.82L703.04 130.82L671 149.32L638.95 130.82L638.95 93.82zM703.04 130.82L735.08 149.32L735.08 186.32L703.04 204.82L671 186.32L671 149.32zM671 186.32L703.04 204.82L703.04 241.82L671 260.32L638.95 241.82L638.95 204.82zM671 297.32L703.04 315.82L703.04 352.82L671 371.32L638.95 352.82L638.95 315.82zM671 519.32L703.04 537.82L703.04 574.82L671 593.32L638.95 574.82L638.95 537.82zM767.13 130.82L799.17 149.32L799.17 186.32L767.13 204.82L735.08 186.32L735.08 149.32zM735.08 297.32L767.13 315.82L767.13 352.82L735.08 371.32L703.04 352.82L703.04 315.82zM735.08 519.32L767.13 537.82L767.13 574.82L735.08 593.32L703.04 574.82L703.04 537.82zM799.17 -35.68L831.22 -17.18L831.22 19.82L799.17 38.32L767.13 19.82L767.13 -17.18zM831.22 19.82L863.26 38.32L863.26 75.32L831.22 93.82L799.17 75.32L799.17 38.32zM799.17 408.32L831.22 426.82L831.22 463.82L799.17 482.32L767.13 463.82L767.13 426.82zM831.22 463.82L863.26 482.32L863.26 519.32L831.22 537.82L799.17 519.32L799.17 482.32zM895.3 352.82L927.35 371.32L927.35 408.32L895.3 426.82L863.26 408.32L863.26 371.32zM863.26 408.32L895.3 426.82L895.3 463.82L863.26 482.32L831.22 463.82L831.22 426.82zM895.3 574.82L927.35 593.32L927.35 630.32L895.3 648.82L863.26 630.32L863.26 593.32zM863.26 741.32L895.3 759.82L895.3 796.82L863.26 815.32L831.22 796.82L831.22 759.82zM959.39 241.82L991.44 260.32L991.44 297.32L959.39 315.82L927.35 297.32L927.35 260.32zM959.39 352.82L991.44 371.32L991.44 408.32L959.39 426.82L927.35 408.32L927.35 371.32zM959.39 463.82L991.44 482.32L991.44 519.32L959.39 537.82L927.35 519.32L927.35 482.32zM927.35 630.32L959.39 648.82L959.39 685.82L927.35 704.32L895.3 685.82L895.3 648.82zM1023.48 130.82L1055.52 149.32L1055.52 186.32L1023.48 204.82L991.44 186.32L991.44 149.32zM1023.48 241.82L1055.52 260.32L1055.52 297.32L1023.48 315.82L991.44 297.32L991.44 260.32zM1023.48 463.82L1055.52 482.32L1055.52 519.32L1023.48 537.82L991.44 519.32L991.44 482.32zM1023.48 574.82L1055.52 593.32L1055.52 630.32L1023.48 648.82L991.44 630.32L991.44 593.32zM991.44 630.32L1023.48 648.82L1023.48 685.82L991.44 704.32L959.39 685.82L959.39 648.82zM1023.48 685.82L1055.52 704.32L1055.52 741.32L1023.48 759.82L991.44 741.32L991.44 704.32zM1055.52 -35.68L1087.57 -17.18L1087.57 19.82L1055.52 38.32L1023.48 19.82L1023.48 -17.18zM1087.57 19.82L1119.61 38.32L1119.61 75.32L1087.57 93.82L1055.52 75.32L1055.52 38.32zM1087.57 463.82L1119.61 482.32L1119.61 519.32L1087.57 537.82L1055.52 519.32L1055.52 482.32zM1087.57 574.82L1119.61 593.32L1119.61 630.32L1087.57 648.82L1055.52 630.32L1055.52 593.32zM1119.61 297.32L1151.65 315.82L1151.65 352.82L1119.61 371.32L1087.57 352.82L1087.57 315.82zM1151.65 352.82L1183.7 371.32L1183.7 408.32L1151.65 426.82L1119.61 408.32L1119.61 371.32zM1151.65 463.82L1183.7 482.32L1183.7 519.32L1151.65 537.82L1119.61 519.32L1119.61 482.32zM1119.61 741.32L1151.65 759.82L1151.65 796.82L1119.61 815.32L1087.57 796.82L1087.57 759.82zM1215.74 19.82L1247.79 38.32L1247.79 75.32L1215.74 93.82L1183.7 75.32L1183.7 38.32zM1183.7 630.32L1215.74 648.82L1215.74 685.82L1183.7 704.32L1151.65 685.82L1151.65 648.82zM1215.74 685.82L1247.79 704.32L1247.79 741.32L1215.74 759.82L1183.7 741.32L1183.7 704.32zM1247.79 -35.68L1279.83 -17.18L1279.83 19.82L1247.79 38.32L1215.74 19.82L1215.74 -17.18zM1247.79 186.32L1279.83 204.82L1279.83 241.82L1247.79 260.32L1215.74 241.82L1215.74 204.82zM1247.79 297.32L1279.83 315.82L1279.83 352.82L1247.79 371.32L1215.74 352.82L1215.74 315.82zM1247.79 408.32L1279.83 426.82L1279.83 463.82L1247.79 482.32L1215.74 463.82L1215.74 426.82zM1247.79 519.32L1279.83 537.82L1279.83 574.82L1247.79 593.32L1215.74 574.82L1215.74 537.82zM1279.83 574.82L1311.87 593.32L1311.87 630.32L1279.83 648.82L1247.79 630.32L1247.79 593.32zM1311.87 -35.68L1343.92 -17.18L1343.92 19.82L1311.87 38.32L1279.83 19.82L1279.83 -17.18zM1311.87 186.32L1343.92 204.82L1343.92 241.82L1311.87 260.32L1279.83 241.82L1279.83 204.82zM1311.87 408.32L1343.92 426.82L1343.92 463.82L1311.87 482.32L1279.83 463.82L1279.83 426.82zM1375.96 -35.68L1408.01 -17.18L1408.01 19.82L1375.96 38.32L1343.92 19.82L1343.92 -17.18zM1408.01 130.82L1440.05 149.32L1440.05 186.32L1408.01 204.82L1375.96 186.32L1375.96 149.32zM1375.96 741.32L1408.01 759.82L1408.01 796.82L1375.96 815.32L1343.92 796.82L1343.92 759.82zM1440.05 519.32L1472.09 537.82L1472.09 574.82L1440.05 593.32L1408.01 574.82L1408.01 537.82zM1472.09 685.82L1504.14 704.32L1504.14 741.32L1472.09 759.82L1440.05 741.32L1440.05 704.32zM1440.05 741.32L1472.09 759.82L1472.09 796.82L1440.05 815.32L1408.01 796.82L1408.01 759.82z" stroke="rgba(6, 80, 156, 0.93)" stroke-width="2"></path></g><defs><mask id="SvgjsMask1007"><rect width="1440" height="800" fill="#ffffff"></rect></mask></defs></svg>